<?xml version="1.0" standalone="no"?><!DOCTYPE svg PUBLIC "-//W3C//DTD SVG 1.1//EN" "http://www.w3.org/Graphics/SVG/1.1/DTD/svg11.dtd"><svg
    t="1676091233046"
    class="icon"
    viewBox="0 0 1024 1024"
    version="1.1"
    xmlns="http://www.w3.org/2000/svg"
    p-id="14096"
    width="128" height="128"
    xmlns:xlink="http://www.w3.org/1999/xlink"
  >
    <path
      d="M512 64C264.576 64 64 264.576 64 512s200.576 448 448 448 448-200.576 448-448S759.424 64 512 64z m255.499 512H410.983l82.859 82.855c24.885 24.883 24.885 65.602 0 90.485-24.882 24.881-65.599 24.881-90.482 0L214.07 560.06a64.115 64.115 0 0 1-2.915-2.72c-12.467-12.466-18.686-28.907-18.661-45.34-0.025-16.433 6.194-32.874 18.661-45.34a64.115 64.115 0 0 1 2.915-2.72l189.291-189.28c24.882-24.881 65.599-24.881 90.482 0 24.885 24.883 24.885 65.602 0 90.485L410.983 448h356.516c35.2 0 64 28.8 64 64s-28.8 64-64 64z"
      p-id="14097"
      fill="#707070"
    ></path>
  </svg>